# xmcd
#
# Track frame offsets: 
#        150
#        12685
#        28002
#        45188
#        58119
#        69728
#        80684
#        94297
#        104442
#        119405
#        131607
#        143656
#        156411
#        167497
#
# Disc length: 2394 seconds
#
# Revision: 0
# Processed by: cddbd v1.5.2PL0 Copyright (c) Steve Scherf et al.
# Submitted via: ExactAudioCopy v1.3
#
DISCID=c309580e
DTITLE=Duo Tornádo - Radost z jízdy
DYEAR=2008
DGENRE=Country
TTITLE0=Kafe
TTITLE1=Léto
TTITLE2=Břehy mé duše
TTITLE3=Proč sám
TTITLE4=Rosa 2
TTITLE5=Odcházím
TTITLE6=Zpátky nevedou
TTITLE7=Čekání
TTITLE8=Pláčou tvoje modré oči
TTITLE9=Lehounce snít
TTITLE10=Když zima se vrací
TTITLE11=Láska padá
TTITLE12=Láska
TTITLE13=Budem si zpívat
EXTD=
EXTT0=
EXTT1=
EXTT2=
EXTT3=
EXTT4=
EXTT5=
EXTT6=
EXTT7=
EXTT8=
EXTT9=
EXTT10=
EXTT11=
EXTT12=
EXTT13=
PLAYORDER=
